# xmcd
#
# Track frame offsets: 
#        150
#        17692
#        33830
#        50837
#        66785
#        84365
#        99127
#        115027
#        135055
#        150210
#        168055
#        184455
#        201275
#        215312
#        237195
#        250462
#        266715
#        285935
#        299720
#        313327
#        335215
#
# Disc length: 4736 seconds
#
# Revision: 0
# Processed by: cddbd v1.5.1PL0 Copyright (c) Steve Scherf et al.
# Submitted via: ExactAudioCopy v0.95a3
#
DISCID=28127e15
DTITLE=Various Artist - This Is Pop Country Disc 1
DYEAR=2004
DGENRE=Country
TTITLE0=How Do I Live (Dance Mig Mix) - LeAnn Rimes
TTITLE1=Just To See You Smile - Tim McGraw
TTITLE2=It's Your Love - Tim McGraw With Faith Hill
TTITLE3=Good Morning Beautiful - Steve Holy
TTITLE4=I Saw The Light - Wynonna
TTITLE5=I'm Alright - Jo Dee Messina
TTITLE6=Bring On The Rain (Radio Edit) - Jo Dee Messina With Tim McGra
TTITLE6=w
TTITLE7=Past The Point Of Rescue - Hal Ketchum
TTITLE8=Not On Your Love - Jeff Carson
TTITLE9=No One Else On Earth - Wynonna
TTITLE10=Lesson In Leavin' - Jo Dee Messina
TTITLE11=The Walk - Sawyer Brown
TTITLE12=Big Deal - LeAnn Rimes
TTITLE13=To Be Loved By You - Wynonna
TTITLE14=Small Town Saturday Night - Hal Ketchum
TTITLE15=If I Never Stop Loving You - David Kersh
TTITLE16=Honesty - Rodney Atkins
TTITLE17=Men Don't Change - Amy Dalley
TTITLE18=Good Little Girl - Blue County
TTITLE19=Everywhere - Tim McGraw
TTITLE20=How Do I Live (US Single) - LeAnn Rimes
EXTD=
EXTT0=
EXTT1=
EXTT2=
EXTT3=
EXTT4=
EXTT5=
EXTT6=
EXTT7=
EXTT8=
EXTT9=
EXTT10=
EXTT11=
EXTT12=
EXTT13=
EXTT14=
EXTT15=
EXTT16=
EXTT17=
EXTT18=
EXTT19=
EXTT20=
PLAYORDER=
